<?xml version="1.0" encoding="iso-8859-1"?>
<!-- Generator: Adobe Illustrator 19.0.0, SVG Export Plug-In . SVG Version: 6.00 Build 0)  -->
<svg version="1.1" id="Capa_1" xmlns="http://www.w3.org/2000/svg" xmlns:xlink="http://www.w3.org/1999/xlink" x="0px" y="0px"
	 viewBox="0 0 512 512" style="enable-background:new 0 0 512 512;" xml:space="preserve">
<path style="fill:#0088FF;" d="M485.501,221.575c-76.201,75.899-137.1,136.8-208.2,208.2L226,421.074l-55.499-55.499L156.1,351.176
	l-41.4-41.4l-8.7-51.301c69-69,132.001-131.999,208.2-208.2c17.401-17.401,46.199-17.401,63.6,0l53.699,54l54.001,53.701
	C502.899,175.374,502.899,204.175,485.501,221.575z"/>
<path style="fill:#4B5BE4;" d="M485.501,221.575c-76.201,75.899-137.1,136.8-208.2,208.2L226,421.074l-55.499-55.499L431.5,104.274
	l54.001,53.701C502.899,175.374,502.899,204.175,485.501,221.575z"/>
<path style="fill:#FF4F19;" d="M277.301,429.776c-4.801,4.799-36,35.7-40.801,40.499c-2.699,3.001-6.599,4.501-10.499,4.501H106
	c-3.9,0-7.8-1.5-10.499-4.501l-15-15c-23.401-23.101-18.001-17.699-54.002-53.7c-17.399-17.401-17.399-46.201,0-63.6l79.501-79.5
	l72.299,72.301l13.5,13.499L277.301,429.776z"/>
<path style="fill:#ED2500;" d="M277.301,429.776c-4.801,4.799-36,35.7-40.801,40.499c-2.699,3.001-6.599,4.501-10.499,4.501H106
	c-3.9,0-7.8-1.5-10.499-4.501l-15-15l111.299-111L277.301,429.776z"/>
<path style="fill:#949FB3;" d="M512,459.776c0,8.399-6.599,15-15,15H15c-8.401,0-15-6.601-15-15c0-8.401,6.599-15,15-15h482
	C505.401,444.776,512,451.375,512,459.776z"/>
<path style="fill:#C7C5CA;" d="M512,459.776c0,8.399-6.599,15-15,15H61l30-30h406C505.401,444.776,512,451.375,512,459.776z"/>
<g>
</g>
<g>
</g>
<g>
</g>
<g>
</g>
<g>
</g>
<g>
</g>
<g>
</g>
<g>
</g>
<g>
</g>
<g>
</g>
<g>
</g>
<g>
</g>
<g>
</g>
<g>
</g>
<g>
</g>
</svg>
