<svg id="Capa_1" enable-background="new 0 0 512 512" height="512" viewBox="0 0 512 512" width="512" xmlns="http://www.w3.org/2000/svg"><g><path d="m75.689 75.689 24.687 54.687 28.403-1.597 127.221-52.779 30-41.25-30-34.75c-70.417 0-134.165 29.542-180.311 75.689z" fill="#ff7b4a"/><path d="m75.689 75.689c-46.147 46.144-75.689 109.894-75.689 180.311l39.438 30 36.562-30 52.778-127.222z" fill="#e63950"/><path d="m76 256h-76c0 70.415 29.542 134.165 75.689 180.311l54.686-24.686-1.597-28.403z" fill="#7ed8f6"/><path d="m128.778 383.222-53.09 53.09c46.147 46.146 109.897 75.688 180.312 75.688l30-38.5-30-37.5z" fill="#6aa9ff"/><path d="m383.222 383.222-127.222 52.778v76c70.417 0 134.165-29.542 180.311-75.689l-21.405-51.405z" fill="#97de3d"/><path d="m436 256-52.778 127.222 53.09 53.09c46.146-46.147 75.688-109.897 75.688-180.312l-37.562-30z" fill="#59c36a"/><path d="m436.311 75.689-43.905 13.905-9.185 39.185 52.779 127.221h76c0-70.417-29.542-134.167-75.689-180.311z" fill="#fed843"/><path d="m256 0v76l127.222 52.778 53.09-53.09c-46.147-46.146-109.895-75.688-180.312-75.688z" fill="#ff9f00"/><path d="m256 181 30-52.5-30-52.5c-49.629 0-94.629 20.186-127.222 52.778l22.691 52.691 51.498 21.498c13.572-13.572 32.322-21.967 53.033-21.967z" fill="#e63950"/><path d="m202.967 202.967-74.189-74.189c-32.592 32.593-52.778 77.593-52.778 127.222l57.187 30 47.813-30c0-20.711 8.395-39.459 21.967-53.033z" fill="#ae2538"/><path d="m202.967 309.033c-13.572-13.572-21.967-32.324-21.967-53.033h-105c0 49.629 20.186 94.629 52.778 127.222l53.628-23.628z" fill="#6aa9ff"/><path d="m202.967 309.033-74.189 74.189c32.593 32.592 77.593 52.778 127.222 52.778l30-54.375-30-50.625c-20.711 0-39.461-8.394-53.033-21.967z" fill="#4895ff"/><path d="m256 331v105c49.629 0 94.629-20.186 127.222-52.778l-21.752-51.752-52.437-22.437c-13.574 13.573-32.322 21.967-53.033 21.967z" fill="#59c36a"/><path d="m309.033 309.033 74.189 74.189c32.592-32.593 52.778-77.593 52.778-127.222l-53.438-30-51.562 30c0 20.709-8.395 39.461-21.967 53.033z" fill="#00a66c"/><path d="m331 256h105c0-49.629-20.186-94.629-52.778-127.222l-55.972 25.972-18.217 48.217c13.572 13.574 21.967 32.322 21.967 53.033z" fill="#ff9f00"/><path d="m309.033 202.967 74.189-74.189c-32.593-32.592-77.593-52.778-127.222-52.778v105c20.711 0 39.459 8.395 53.033 21.967z" fill="#ff641a"/><circle cx="256" cy="256" fill="#edf5ff" r="90"/><path d="m346 256c0-49.629-40.371-90-90-90v180c49.629 0 90-40.371 90-90z" fill="#d5e8fe"/></g></svg>