<svg height="512" viewBox="0 0 58 58" width="512" xmlns="http://www.w3.org/2000/svg"><g id="Page-1" fill="none" fill-rule="evenodd"><g id="049---Contrast" fill-rule="nonzero"><circle id="Oval" cx="29" cy="29" fill="#547580" r="29"/><path id="Shape" d="m54 29c.0030843 1.9021626-.2150475 3.798231-.65 5.65l-18.7 18.7c-1.851769.4349525-3.7478374.6530843-5.65.6500323v-2.0000323l24.92-24.92c.06.64.08 1.27.08 1.92z" fill="#e57e25"/><path id="Shape" d="m53.92 27.08-24.92 24.92v-7l23.77-23.77c.6194617 1.8960674 1.0056395 3.8605367 1.15 5.85z" fill="#f29c1f"/><path id="Shape" d="m52.77 21.23-23.77 23.77v-7l21.59-21.59c.9012701 1.5218376 1.6323366 3.1382324 2.18 4.82z" fill="#e57e25"/><path id="Shape" d="m50.59 16.41-21.59 21.59v-7l18.65-18.65c1.121319 1.2451519 2.1068741 2.6061566 2.94 4.06z" fill="#f29c1f"/><path id="Shape" d="m47.65 12.35-18.65 18.65v-7l15-15c1.3261417.99118345 2.5489901 2.1135237 3.65 3.35z" fill="#e57e25"/><path id="Shape" d="m44 9-15 15v-7l10.63-10.63c1.5434246.72369632 3.0078791 1.60504992 4.37 2.63z" fill="#f29c1f"/><path id="Shape" d="m39.63 6.37-10.63 10.63v-7l5.41-5.41c1.8013664.39526981 3.5524255.99237427 5.22 1.78z" fill="#e57e25"/><path id="Shape" d="m34.41 4.59-5.41 5.41v-6.00003651c1.8195563-.00309163 3.6338911.19477483 5.41.59003651z" fill="#f29c1f"/><path id="Shape" d="m29 4v50c-13.8071187 0-25-11.1928813-25-25s11.1928813-25 25-25z" fill="#f0c419"/><path id="Shape" d="m53.35 34.65c-2.1522011 9.2921593-9.4078407 16.5477989-18.7 18.7z" fill="#f29c1f"/></g></g></svg>